<svg width="136" height="252" viewBox="0 0 136 252" fill="none" xmlns="http://www.w3.org/2000/svg">
<path d="M3.375 122.965C2.925 122.965 2.538 122.812 2.214 122.506C1.908 122.182 1.755 121.777 1.755 121.291C1.755 120.769 1.908 120.355 2.214 120.049C2.538 119.725 2.925 119.563 3.375 119.563C3.807 119.563 4.176 119.725 4.482 120.049C4.806 120.355 4.968 120.769 4.968 121.291C4.968 121.777 4.806 122.182 4.482 122.506C4.176 122.812 3.807 122.965 3.375 122.965Z" fill="#CCCCCC" fill-opacity="0.3"/>
<path d="M3.375 171.693C2.925 171.693 2.538 171.54 2.214 171.234C1.908 170.91 1.755 170.505 1.755 170.019C1.755 169.497 1.908 169.083 2.214 168.777C2.538 168.453 2.925 168.291 3.375 168.291C3.807 168.291 4.176 168.453 4.482 168.777C4.806 169.083 4.968 169.497 4.968 170.019C4.968 170.505 4.806 170.91 4.482 171.234C4.176 171.54 3.807 171.693 3.375 171.693Z" fill="#CCCCCC" fill-opacity="0.3"/>
<path d="M3.375 147.33C2.925 147.33 2.538 147.177 2.214 146.871C1.908 146.547 1.755 146.142 1.755 145.656C1.755 145.134 1.908 144.72 2.214 144.414C2.538 144.09 2.925 143.928 3.375 143.928C3.807 143.928 4.176 144.09 4.482 144.414C4.806 144.72 4.968 145.134 4.968 145.656C4.968 146.142 4.806 146.547 4.482 146.871C4.176 147.177 3.807 147.33 3.375 147.33Z" fill="#CCCCCC" fill-opacity="0.3"/>
<path d="M3.375 196.057C2.925 196.057 2.538 195.904 2.214 195.598C1.908 195.274 1.755 194.869 1.755 194.383C1.755 193.861 1.908 193.447 2.214 193.141C2.538 192.817 2.925 192.655 3.375 192.655C3.807 192.655 4.176 192.817 4.482 193.141C4.806 193.447 4.968 193.861 4.968 194.383C4.968 194.869 4.806 195.274 4.482 195.598C4.176 195.904 3.807 196.057 3.375 196.057Z" fill="#CCCCCC" fill-opacity="0.3"/>
<path d="M3.375 232.604C2.925 232.604 2.538 232.451 2.214 232.145C1.908 231.821 1.755 231.416 1.755 230.93C1.755 230.408 1.908 229.994 2.214 229.688C2.538 229.364 2.925 229.202 3.375 229.202C3.807 229.202 4.176 229.364 4.482 229.688C4.806 229.994 4.968 230.408 4.968 230.93C4.968 231.416 4.806 231.821 4.482 232.145C4.176 232.451 3.807 232.604 3.375 232.604Z" fill="#CCCCCC" fill-opacity="0.3"/>
<path d="M3.375 135.147C2.925 135.147 2.538 134.994 2.214 134.688C1.908 134.364 1.755 133.959 1.755 133.473C1.755 132.951 1.908 132.537 2.214 132.231C2.538 131.907 2.925 131.745 3.375 131.745C3.807 131.745 4.176 131.907 4.482 132.231C4.806 132.537 4.968 132.951 4.968 133.473C4.968 133.959 4.806 134.364 4.482 134.688C4.176 134.994 3.807 135.147 3.375 135.147Z" fill="#CCCCCC" fill-opacity="0.3"/>
<path d="M3.375 183.876C2.925 183.876 2.538 183.723 2.214 183.417C1.908 183.093 1.755 182.688 1.755 182.202C1.755 181.68 1.908 181.266 2.214 180.96C2.538 180.636 2.925 180.474 3.375 180.474C3.807 180.474 4.176 180.636 4.482 180.96C4.806 181.266 4.968 181.68 4.968 182.202C4.968 182.688 4.806 183.093 4.482 183.417C4.176 183.723 3.807 183.876 3.375 183.876Z" fill="#CCCCCC" fill-opacity="0.3"/>
<path d="M3.375 220.422C2.925 220.422 2.538 220.269 2.214 219.963C1.908 219.639 1.755 219.234 1.755 218.748C1.755 218.226 1.908 217.812 2.214 217.506C2.538 217.182 2.925 217.02 3.375 217.02C3.807 217.02 4.176 217.182 4.482 217.506C4.806 217.812 4.968 218.226 4.968 218.748C4.968 219.234 4.806 219.639 4.482 219.963C4.176 220.269 3.807 220.422 3.375 220.422Z" fill="#CCCCCC" fill-opacity="0.3"/>
<path d="M3.375 159.512C2.925 159.512 2.538 159.358 2.214 159.052C1.908 158.728 1.755 158.323 1.755 157.837C1.755 157.315 1.908 156.901 2.214 156.595C2.538 156.271 2.925 156.109 3.375 156.109C3.807 156.109 4.176 156.271 4.482 156.595C4.806 156.901 4.968 157.315 4.968 157.837C4.968 158.323 4.806 158.728 4.482 159.052C4.176 159.358 3.807 159.512 3.375 159.512Z" fill="#CCCCCC" fill-opacity="0.3"/>
<path d="M3.375 208.24C2.925 208.24 2.538 208.087 2.214 207.781C1.908 207.457 1.755 207.052 1.755 206.566C1.755 206.044 1.908 205.63 2.214 205.324C2.538 205 2.925 204.838 3.375 204.838C3.807 204.838 4.176 205 4.482 205.324C4.806 205.63 4.968 206.044 4.968 206.566C4.968 207.052 4.806 207.457 4.482 207.781C4.176 208.087 3.807 208.24 3.375 208.24Z" fill="#CCCCCC" fill-opacity="0.3"/>
<path d="M3.375 244.786C2.925 244.786 2.538 244.633 2.214 244.327C1.908 244.003 1.755 243.598 1.755 243.112C1.755 242.59 1.908 242.176 2.214 241.87C2.538 241.546 2.925 241.384 3.375 241.384C3.807 241.384 4.176 241.546 4.482 241.87C4.806 242.176 4.968 242.59 4.968 243.112C4.968 243.598 4.806 244.003 4.482 244.327C4.176 244.633 3.807 244.786 3.375 244.786Z" fill="#CCCCCC" fill-opacity="0.3"/>
<path d="M19.0059 122.965C18.5559 122.965 18.1689 122.812 17.8449 122.506C17.5389 122.182 17.3859 121.777 17.3859 121.291C17.3859 120.769 17.5389 120.355 17.8449 120.049C18.1689 119.725 18.5559 119.563 19.0059 119.563C19.4379 119.563 19.8069 119.725 20.1129 120.049C20.4369 120.355 20.5989 120.769 20.5989 121.291C20.5989 121.777 20.4369 122.182 20.1129 122.506C19.8069 122.812 19.4379 122.965 19.0059 122.965Z" fill="#CCCCCC" fill-opacity="0.3"/>
<path d="M19.0059 171.693C18.5559 171.693 18.1689 171.54 17.8449 171.234C17.5389 170.91 17.3859 170.505 17.3859 170.019C17.3859 169.497 17.5389 169.083 17.8449 168.777C18.1689 168.453 18.5559 168.291 19.0059 168.291C19.4379 168.291 19.8069 168.453 20.1129 168.777C20.4369 169.083 20.5989 169.497 20.5989 170.019C20.5989 170.505 20.4369 170.91 20.1129 171.234C19.8069 171.54 19.4379 171.693 19.0059 171.693Z" fill="#CCCCCC" fill-opacity="0.3"/>
<path d="M19.0059 147.33C18.5559 147.33 18.1689 147.177 17.8449 146.871C17.5389 146.547 17.3859 146.142 17.3859 145.656C17.3859 145.134 17.5389 144.72 17.8449 144.414C18.1689 144.09 18.5559 143.928 19.0059 143.928C19.4379 143.928 19.8069 144.09 20.1129 144.414C20.4369 144.72 20.5989 145.134 20.5989 145.656C20.5989 146.142 20.4369 146.547 20.1129 146.871C19.8069 147.177 19.4379 147.33 19.0059 147.33Z" fill="#CCCCCC" fill-opacity="0.3"/>
<path d="M19.0059 196.057C18.5559 196.057 18.1689 195.904 17.8449 195.598C17.5389 195.274 17.3859 194.869 17.3859 194.383C17.3859 193.861 17.5389 193.447 17.8449 193.141C18.1689 192.817 18.5559 192.655 19.0059 192.655C19.4379 192.655 19.8069 192.817 20.1129 193.141C20.4369 193.447 20.5989 193.861 20.5989 194.383C20.5989 194.869 20.4369 195.274 20.1129 195.598C19.8069 195.904 19.4379 196.057 19.0059 196.057Z" fill="#CCCCCC" fill-opacity="0.3"/>
<path d="M19.0059 232.604C18.5559 232.604 18.1689 232.451 17.8449 232.145C17.5389 231.821 17.3859 231.416 17.3859 230.93C17.3859 230.408 17.5389 229.994 17.8449 229.688C18.1689 229.364 18.5559 229.202 19.0059 229.202C19.4379 229.202 19.8069 229.364 20.1129 229.688C20.4369 229.994 20.5989 230.408 20.5989 230.93C20.5989 231.416 20.4369 231.821 20.1129 232.145C19.8069 232.451 19.4379 232.604 19.0059 232.604Z" fill="#CCCCCC" fill-opacity="0.3"/>
<path d="M19.0059 135.147C18.5559 135.147 18.1689 134.994 17.8449 134.688C17.5389 134.364 17.3859 133.959 17.3859 133.473C17.3859 132.951 17.5389 132.537 17.8449 132.231C18.1689 131.907 18.5559 131.745 19.0059 131.745C19.4379 131.745 19.8069 131.907 20.1129 132.231C20.4369 132.537 20.5989 132.951 20.5989 133.473C20.5989 133.959 20.4369 134.364 20.1129 134.688C19.8069 134.994 19.4379 135.147 19.0059 135.147Z" fill="#CCCCCC" fill-opacity="0.3"/>
<path d="M19.0059 183.876C18.5559 183.876 18.1689 183.723 17.8449 183.417C17.5389 183.093 17.3859 182.688 17.3859 182.202C17.3859 181.68 17.5389 181.266 17.8449 180.96C18.1689 180.636 18.5559 180.474 19.0059 180.474C19.4379 180.474 19.8069 180.636 20.1129 180.96C20.4369 181.266 20.5989 181.68 20.5989 182.202C20.5989 182.688 20.4369 183.093 20.1129 183.417C19.8069 183.723 19.4379 183.876 19.0059 183.876Z" fill="#CCCCCC" fill-opacity="0.3"/>
<path d="M19.0059 220.422C18.5559 220.422 18.1689 220.269 17.8449 219.963C17.5389 219.639 17.3859 219.234 17.3859 218.748C17.3859 218.226 17.5389 217.812 17.8449 217.506C18.1689 217.182 18.5559 217.02 19.0059 217.02C19.4379 217.02 19.8069 217.182 20.1129 217.506C20.4369 217.812 20.5989 218.226 20.5989 218.748C20.5989 219.234 20.4369 219.639 20.1129 219.963C19.8069 220.269 19.4379 220.422 19.0059 220.422Z" fill="#CCCCCC" fill-opacity="0.3"/>
<path d="M19.0059 159.512C18.5559 159.512 18.1689 159.358 17.8449 159.052C17.5389 158.728 17.3859 158.323 17.3859 157.837C17.3859 157.315 17.5389 156.901 17.8449 156.595C18.1689 156.271 18.5559 156.109 19.0059 156.109C19.4379 156.109 19.8069 156.271 20.1129 156.595C20.4369 156.901 20.5989 157.315 20.5989 157.837C20.5989 158.323 20.4369 158.728 20.1129 159.052C19.8069 159.358 19.4379 159.512 19.0059 159.512Z" fill="#CCCCCC" fill-opacity="0.3"/>
<path d="M19.0059 208.24C18.5559 208.24 18.1689 208.087 17.8449 207.781C17.5389 207.457 17.3859 207.052 17.3859 206.566C17.3859 206.044 17.5389 205.63 17.8449 205.324C18.1689 205 18.5559 204.838 19.0059 204.838C19.4379 204.838 19.8069 205 20.1129 205.324C20.4369 205.63 20.5989 206.044 20.5989 206.566C20.5989 207.052 20.4369 207.457 20.1129 207.781C19.8069 208.087 19.4379 208.24 19.0059 208.24Z" fill="#CCCCCC" fill-opacity="0.3"/>
<path d="M34.6387 74.2244C34.1887 74.2244 33.8017 74.0714 33.4777 73.7654C33.1717 73.4414 33.0187 73.0364 33.0187 72.5504C33.0187 72.0284 33.1717 71.6144 33.4777 71.3084C33.8017 70.9844 34.1887 70.8224 34.6387 70.8224C35.0707 70.8224 35.4397 70.9844 35.7457 71.3084C36.0697 71.6144 36.2317 72.0284 36.2317 72.5504C36.2317 73.0364 36.0697 73.4414 35.7457 73.7654C35.4397 74.0714 35.0707 74.2244 34.6387 74.2244Z" fill="#CCCCCC" fill-opacity="0.3"/>
<path d="M34.6387 122.953C34.1887 122.953 33.8017 122.8 33.4777 122.494C33.1717 122.17 33.0187 121.765 33.0187 121.279C33.0187 120.757 33.1717 120.343 33.4777 120.037C33.8017 119.713 34.1887 119.551 34.6387 119.551C35.0707 119.551 35.4397 119.713 35.7457 120.037C36.0697 120.343 36.2317 120.757 36.2317 121.279C36.2317 121.765 36.0697 122.17 35.7457 122.494C35.4397 122.8 35.0707 122.953 34.6387 122.953Z" fill="#CCCCCC" fill-opacity="0.3"/>
<path d="M34.6387 98.5896C34.1887 98.5896 33.8017 98.4366 33.4777 98.1306C33.1717 97.8066 33.0187 97.4016 33.0187 96.9156C33.0187 96.3936 33.1717 95.9796 33.4777 95.6736C33.8017 95.3496 34.1887 95.1876 34.6387 95.1876C35.0707 95.1876 35.4397 95.3496 35.7457 95.6736C36.0697 95.9796 36.2317 96.3936 36.2317 96.9156C36.2317 97.4016 36.0697 97.8066 35.7457 98.1306C35.4397 98.4366 35.0707 98.5896 34.6387 98.5896Z" fill="#CCCCCC" fill-opacity="0.3"/>
<path d="M34.6387 147.317C34.1887 147.317 33.8017 147.164 33.4777 146.858C33.1717 146.534 33.0187 146.129 33.0187 145.643C33.0187 145.121 33.1717 144.707 33.4777 144.401C33.8017 144.077 34.1887 143.915 34.6387 143.915C35.0707 143.915 35.4397 144.077 35.7457 144.401C36.0697 144.707 36.2317 145.121 36.2317 145.643C36.2317 146.129 36.0697 146.534 35.7457 146.858C35.4397 147.164 35.0707 147.317 34.6387 147.317Z" fill="#CCCCCC" fill-opacity="0.3"/>
<path d="M34.6387 183.863C34.1887 183.863 33.8017 183.71 33.4777 183.404C33.1717 183.08 33.0187 182.675 33.0187 182.189C33.0187 181.667 33.1717 181.253 33.4777 180.947C33.8017 180.623 34.1887 180.461 34.6387 180.461C35.0707 180.461 35.4397 180.623 35.7457 180.947C36.0697 181.253 36.2317 181.667 36.2317 182.189C36.2317 182.675 36.0697 183.08 35.7457 183.404C35.4397 183.71 35.0707 183.863 34.6387 183.863Z" fill="#CCCCCC" fill-opacity="0.3"/>
<path d="M34.6387 86.407C34.1887 86.407 33.8017 86.254 33.4777 85.948C33.1717 85.624 33.0187 85.219 33.0187 84.733C33.0187 84.211 33.1717 83.797 33.4777 83.491C33.8017 83.167 34.1887 83.005 34.6387 83.005C35.0707 83.005 35.4397 83.167 35.7457 83.491C36.0697 83.797 36.2317 84.211 36.2317 84.733C36.2317 85.219 36.0697 85.624 35.7457 85.948C35.4397 86.254 35.0707 86.407 34.6387 86.407Z" fill="#CCCCCC" fill-opacity="0.3"/>
<path d="M34.6387 135.135C34.1887 135.135 33.8017 134.982 33.4777 134.676C33.1717 134.352 33.0187 133.947 33.0187 133.461C33.0187 132.939 33.1717 132.525 33.4777 132.219C33.8017 131.895 34.1887 131.733 34.6387 131.733C35.0707 131.733 35.4397 131.895 35.7457 132.219C36.0697 132.525 36.2317 132.939 36.2317 133.461C36.2317 133.947 36.0697 134.352 35.7457 134.676C35.4397 134.982 35.0707 135.135 34.6387 135.135Z" fill="#CCCCCC" fill-opacity="0.3"/>
<path d="M34.6387 171.681C34.1887 171.681 33.8017 171.528 33.4777 171.222C33.1717 170.898 33.0187 170.493 33.0187 170.007C33.0187 169.485 33.1717 169.071 33.4777 168.765C33.8017 168.441 34.1887 168.279 34.6387 168.279C35.0707 168.279 35.4397 168.441 35.7457 168.765C36.0697 169.071 36.2317 169.485 36.2317 170.007C36.2317 170.493 36.0697 170.898 35.7457 171.222C35.4397 171.528 35.0707 171.681 34.6387 171.681Z" fill="#CCCCCC" fill-opacity="0.3"/>
<path d="M34.6387 110.771C34.1887 110.771 33.8017 110.618 33.4777 110.312C33.1717 109.988 33.0187 109.583 33.0187 109.097C33.0187 108.575 33.1717 108.161 33.4777 107.855C33.8017 107.531 34.1887 107.369 34.6387 107.369C35.0707 107.369 35.4397 107.531 35.7457 107.855C36.0697 108.161 36.2317 108.575 36.2317 109.097C36.2317 109.583 36.0697 109.988 35.7457 110.312C35.4397 110.618 35.0707 110.771 34.6387 110.771Z" fill="#CCCCCC" fill-opacity="0.3"/>
<path d="M34.6387 159.5C34.1887 159.5 33.8017 159.347 33.4777 159.041C33.1717 158.717 33.0187 158.312 33.0187 157.826C33.0187 157.304 33.1717 156.89 33.4777 156.584C33.8017 156.26 34.1887 156.098 34.6387 156.098C35.0707 156.098 35.4397 156.26 35.7457 156.584C36.0697 156.89 36.2317 157.304 36.2317 157.826C36.2317 158.312 36.0697 158.717 35.7457 159.041C35.4397 159.347 35.0707 159.5 34.6387 159.5Z" fill="#CCCCCC" fill-opacity="0.3"/>
<path d="M34.6387 196.046C34.1887 196.046 33.8017 195.893 33.4777 195.587C33.1717 195.263 33.0187 194.858 33.0187 194.372C33.0187 193.85 33.1717 193.436 33.4777 193.13C33.8017 192.806 34.1887 192.644 34.6387 192.644C35.0707 192.644 35.4397 192.806 35.7457 193.13C36.0697 193.436 36.2317 193.85 36.2317 194.372C36.2317 194.858 36.0697 195.263 35.7457 195.587C35.4397 195.893 35.0707 196.046 34.6387 196.046Z" fill="#CCCCCC" fill-opacity="0.3"/>
<path d="M50.2695 74.2244C49.8195 74.2244 49.4325 74.0714 49.1085 73.7654C48.8025 73.4414 48.6495 73.0364 48.6495 72.5504C48.6495 72.0284 48.8025 71.6144 49.1085 71.3084C49.4325 70.9844 49.8195 70.8224 50.2695 70.8224C50.7015 70.8224 51.0705 70.9844 51.3765 71.3084C51.7005 71.6144 51.8625 72.0284 51.8625 72.5504C51.8625 73.0364 51.7005 73.4414 51.3765 73.7654C51.0705 74.0714 50.7015 74.2244 50.2695 74.2244Z" fill="#CCCCCC" fill-opacity="0.3"/>
<path d="M50.2695 122.953C49.8195 122.953 49.4325 122.8 49.1085 122.494C48.8025 122.17 48.6495 121.765 48.6495 121.279C48.6495 120.757 48.8025 120.343 49.1085 120.037C49.4325 119.713 49.8195 119.551 50.2695 119.551C50.7015 119.551 51.0705 119.713 51.3765 120.037C51.7005 120.343 51.8625 120.757 51.8625 121.279C51.8625 121.765 51.7005 122.17 51.3765 122.494C51.0705 122.8 50.7015 122.953 50.2695 122.953Z" fill="#CCCCCC" fill-opacity="0.3"/>
<path d="M50.2695 98.5896C49.8195 98.5896 49.4325 98.4366 49.1085 98.1306C48.8025 97.8066 48.6495 97.4016 48.6495 96.9156C48.6495 96.3936 48.8025 95.9796 49.1085 95.6736C49.4325 95.3496 49.8195 95.1876 50.2695 95.1876C50.7015 95.1876 51.0705 95.3496 51.3765 95.6736C51.7005 95.9796 51.8625 96.3936 51.8625 96.9156C51.8625 97.4016 51.7005 97.8066 51.3765 98.1306C51.0705 98.4366 50.7015 98.5896 50.2695 98.5896Z" fill="#CCCCCC" fill-opacity="0.3"/>
<path d="M50.2695 147.317C49.8195 147.317 49.4325 147.164 49.1085 146.858C48.8025 146.534 48.6495 146.129 48.6495 145.643C48.6495 145.121 48.8025 144.707 49.1085 144.401C49.4325 144.077 49.8195 143.915 50.2695 143.915C50.7015 143.915 51.0705 144.077 51.3765 144.401C51.7005 144.707 51.8625 145.121 51.8625 145.643C51.8625 146.129 51.7005 146.534 51.3765 146.858C51.0705 147.164 50.7015 147.317 50.2695 147.317Z" fill="#CCCCCC" fill-opacity="0.3"/>
<path d="M50.2695 183.863C49.8195 183.863 49.4325 183.71 49.1085 183.404C48.8025 183.08 48.6495 182.675 48.6495 182.189C48.6495 181.667 48.8025 181.253 49.1085 180.947C49.4325 180.623 49.8195 180.461 50.2695 180.461C50.7015 180.461 51.0705 180.623 51.3765 180.947C51.7005 181.253 51.8625 181.667 51.8625 182.189C51.8625 182.675 51.7005 183.08 51.3765 183.404C51.0705 183.71 50.7015 183.863 50.2695 183.863Z" fill="#CCCCCC" fill-opacity="0.3"/>
<path d="M50.2695 86.407C49.8195 86.407 49.4325 86.254 49.1085 85.948C48.8025 85.624 48.6495 85.219 48.6495 84.733C48.6495 84.211 48.8025 83.797 49.1085 83.491C49.4325 83.167 49.8195 83.005 50.2695 83.005C50.7015 83.005 51.0705 83.167 51.3765 83.491C51.7005 83.797 51.8625 84.211 51.8625 84.733C51.8625 85.219 51.7005 85.624 51.3765 85.948C51.0705 86.254 50.7015 86.407 50.2695 86.407Z" fill="#CCCCCC" fill-opacity="0.3"/>
<path d="M50.2695 135.135C49.8195 135.135 49.4325 134.982 49.1085 134.676C48.8025 134.352 48.6495 133.947 48.6495 133.461C48.6495 132.939 48.8025 132.525 49.1085 132.219C49.4325 131.895 49.8195 131.733 50.2695 131.733C50.7015 131.733 51.0705 131.895 51.3765 132.219C51.7005 132.525 51.8625 132.939 51.8625 133.461C51.8625 133.947 51.7005 134.352 51.3765 134.676C51.0705 134.982 50.7015 135.135 50.2695 135.135Z" fill="#CCCCCC" fill-opacity="0.3"/>
<path d="M50.2695 171.681C49.8195 171.681 49.4325 171.528 49.1085 171.222C48.8025 170.898 48.6495 170.493 48.6495 170.007C48.6495 169.485 48.8025 169.071 49.1085 168.765C49.4325 168.441 49.8195 168.279 50.2695 168.279C50.7015 168.279 51.0705 168.441 51.3765 168.765C51.7005 169.071 51.8625 169.485 51.8625 170.007C51.8625 170.493 51.7005 170.898 51.3765 171.222C51.0705 171.528 50.7015 171.681 50.2695 171.681Z" fill="#CCCCCC" fill-opacity="0.3"/>
<path d="M50.2695 110.771C49.8195 110.771 49.4325 110.618 49.1085 110.312C48.8025 109.988 48.6495 109.583 48.6495 109.097C48.6495 108.575 48.8025 108.161 49.1085 107.855C49.4325 107.531 49.8195 107.369 50.2695 107.369C50.7015 107.369 51.0705 107.531 51.3765 107.855C51.7005 108.161 51.8625 108.575 51.8625 109.097C51.8625 109.583 51.7005 109.988 51.3765 110.312C51.0705 110.618 50.7015 110.771 50.2695 110.771Z" fill="#CCCCCC" fill-opacity="0.3"/>
<path d="M50.2695 159.5C49.8195 159.5 49.4325 159.347 49.1085 159.041C48.8025 158.717 48.6495 158.312 48.6495 157.826C48.6495 157.304 48.8025 156.89 49.1085 156.584C49.4325 156.26 49.8195 156.098 50.2695 156.098C50.7015 156.098 51.0705 156.26 51.3765 156.584C51.7005 156.89 51.8625 157.304 51.8625 157.826C51.8625 158.312 51.7005 158.717 51.3765 159.041C51.0705 159.347 50.7015 159.5 50.2695 159.5Z" fill="#CCCCCC" fill-opacity="0.3"/>
<path d="M50.2695 196.046C49.8195 196.046 49.4325 195.893 49.1085 195.587C48.8025 195.263 48.6495 194.858 48.6495 194.372C48.6495 193.85 48.8025 193.436 49.1085 193.13C49.4325 192.806 49.8195 192.644 50.2695 192.644C50.7015 192.644 51.0705 192.806 51.3765 193.13C51.7005 193.436 51.8625 193.85 51.8625 194.372C51.8625 194.858 51.7005 195.263 51.3765 195.587C51.0705 195.893 50.7015 196.046 50.2695 196.046Z" fill="#CCCCCC" fill-opacity="0.3"/>
<path d="M65.9014 74.2244C65.4514 74.2244 65.0644 74.0714 64.7404 73.7654C64.4344 73.4414 64.2814 73.0364 64.2814 72.5504C64.2814 72.0284 64.4344 71.6144 64.7404 71.3084C65.0644 70.9844 65.4514 70.8224 65.9014 70.8224C66.3334 70.8224 66.7024 70.9844 67.0084 71.3084C67.3324 71.6144 67.4944 72.0284 67.4944 72.5504C67.4944 73.0364 67.3324 73.4414 67.0084 73.7654C66.7024 74.0714 66.3334 74.2244 65.9014 74.2244Z" fill="#CCCCCC" fill-opacity="0.3"/>
<path d="M65.9014 122.953C65.4514 122.953 65.0644 122.8 64.7404 122.494C64.4344 122.17 64.2814 121.765 64.2814 121.279C64.2814 120.757 64.4344 120.343 64.7404 120.037C65.0644 119.713 65.4514 119.551 65.9014 119.551C66.3334 119.551 66.7024 119.713 67.0084 120.037C67.3324 120.343 67.4944 120.757 67.4944 121.279C67.4944 121.765 67.3324 122.17 67.0084 122.494C66.7024 122.8 66.3334 122.953 65.9014 122.953Z" fill="#CCCCCC" fill-opacity="0.3"/>
<path d="M65.9014 98.5896C65.4514 98.5896 65.0644 98.4366 64.7404 98.1306C64.4344 97.8066 64.2814 97.4016 64.2814 96.9156C64.2814 96.3936 64.4344 95.9796 64.7404 95.6736C65.0644 95.3496 65.4514 95.1876 65.9014 95.1876C66.3334 95.1876 66.7024 95.3496 67.0084 95.6736C67.3324 95.9796 67.4944 96.3936 67.4944 96.9156C67.4944 97.4016 67.3324 97.8066 67.0084 98.1306C66.7024 98.4366 66.3334 98.5896 65.9014 98.5896Z" fill="#CCCCCC" fill-opacity="0.3"/>
<path d="M65.9014 147.317C65.4514 147.317 65.0644 147.164 64.7404 146.858C64.4344 146.534 64.2814 146.129 64.2814 145.643C64.2814 145.121 64.4344 144.707 64.7404 144.401C65.0644 144.077 65.4514 143.915 65.9014 143.915C66.3334 143.915 66.7024 144.077 67.0084 144.401C67.3324 144.707 67.4944 145.121 67.4944 145.643C67.4944 146.129 67.3324 146.534 67.0084 146.858C66.7024 147.164 66.3334 147.317 65.9014 147.317Z" fill="#CCCCCC" fill-opacity="0.3"/>
<path d="M65.9014 183.863C65.4514 183.863 65.0644 183.71 64.7404 183.404C64.4344 183.08 64.2814 182.675 64.2814 182.189C64.2814 181.667 64.4344 181.253 64.7404 180.947C65.0644 180.623 65.4514 180.461 65.9014 180.461C66.3334 180.461 66.7024 180.623 67.0084 180.947C67.3324 181.253 67.4944 181.667 67.4944 182.189C67.4944 182.675 67.3324 183.08 67.0084 183.404C66.7024 183.71 66.3334 183.863 65.9014 183.863Z" fill="#CCCCCC" fill-opacity="0.3"/>
<path d="M65.9014 86.407C65.4514 86.407 65.0644 86.254 64.7404 85.948C64.4344 85.624 64.2814 85.219 64.2814 84.733C64.2814 84.211 64.4344 83.797 64.7404 83.491C65.0644 83.167 65.4514 83.005 65.9014 83.005C66.3334 83.005 66.7024 83.167 67.0084 83.491C67.3324 83.797 67.4944 84.211 67.4944 84.733C67.4944 85.219 67.3324 85.624 67.0084 85.948C66.7024 86.254 66.3334 86.407 65.9014 86.407Z" fill="#CCCCCC" fill-opacity="0.3"/>
<path d="M65.9014 135.135C65.4514 135.135 65.0644 134.982 64.7404 134.676C64.4344 134.352 64.2814 133.947 64.2814 133.461C64.2814 132.939 64.4344 132.525 64.7404 132.219C65.0644 131.895 65.4514 131.733 65.9014 131.733C66.3334 131.733 66.7024 131.895 67.0084 132.219C67.3324 132.525 67.4944 132.939 67.4944 133.461C67.4944 133.947 67.3324 134.352 67.0084 134.676C66.7024 134.982 66.3334 135.135 65.9014 135.135Z" fill="#CCCCCC" fill-opacity="0.3"/>
<path d="M65.9014 171.681C65.4514 171.681 65.0644 171.528 64.7404 171.222C64.4344 170.898 64.2814 170.493 64.2814 170.007C64.2814 169.485 64.4344 169.071 64.7404 168.765C65.0644 168.441 65.4514 168.279 65.9014 168.279C66.3334 168.279 66.7024 168.441 67.0084 168.765C67.3324 169.071 67.4944 169.485 67.4944 170.007C67.4944 170.493 67.3324 170.898 67.0084 171.222C66.7024 171.528 66.3334 171.681 65.9014 171.681Z" fill="#CCCCCC" fill-opacity="0.3"/>
<path d="M65.9014 110.771C65.4514 110.771 65.0644 110.618 64.7404 110.312C64.4344 109.988 64.2814 109.583 64.2814 109.097C64.2814 108.575 64.4344 108.161 64.7404 107.855C65.0644 107.531 65.4514 107.369 65.9014 107.369C66.3334 107.369 66.7024 107.531 67.0084 107.855C67.3324 108.161 67.4944 108.575 67.4944 109.097C67.4944 109.583 67.3324 109.988 67.0084 110.312C66.7024 110.618 66.3334 110.771 65.9014 110.771Z" fill="#CCCCCC" fill-opacity="0.3"/>
<path d="M65.9014 159.5C65.4514 159.5 65.0644 159.347 64.7404 159.041C64.4344 158.717 64.2814 158.312 64.2814 157.826C64.2814 157.304 64.4344 156.89 64.7404 156.584C65.0644 156.26 65.4514 156.098 65.9014 156.098C66.3334 156.098 66.7024 156.26 67.0084 156.584C67.3324 156.89 67.4944 157.304 67.4944 157.826C67.4944 158.312 67.3324 158.717 67.0084 159.041C66.7024 159.347 66.3334 159.5 65.9014 159.5Z" fill="#CCCCCC" fill-opacity="0.3"/>
<path d="M65.9014 196.046C65.4514 196.046 65.0644 195.893 64.7404 195.587C64.4344 195.263 64.2814 194.858 64.2814 194.372C64.2814 193.85 64.4344 193.436 64.7404 193.13C65.0644 192.806 65.4514 192.644 65.9014 192.644C66.3334 192.644 66.7024 192.806 67.0084 193.13C67.3324 193.436 67.4944 193.85 67.4944 194.372C67.4944 194.858 67.3324 195.263 67.0084 195.587C66.7024 195.893 66.3334 196.046 65.9014 196.046Z" fill="#CCCCCC" fill-opacity="0.3"/>
<path d="M81.5322 74.2254C81.0822 74.2254 80.6952 74.0724 80.3712 73.7664C80.0652 73.4424 79.9122 73.0374 79.9122 72.5514C79.9122 72.0294 80.0652 71.6154 80.3712 71.3094C80.6952 70.9854 81.0822 70.8234 81.5322 70.8234C81.9642 70.8234 82.3332 70.9854 82.6392 71.3094C82.9632 71.6154 83.1252 72.0294 83.1252 72.5514C83.1252 73.0374 82.9632 73.4424 82.6392 73.7664C82.3332 74.0724 81.9642 74.2254 81.5322 74.2254Z" fill="#CCCCCC" fill-opacity="0.3"/>
<path d="M81.5322 122.953C81.0822 122.953 80.6952 122.8 80.3712 122.494C80.0652 122.17 79.9122 121.765 79.9122 121.279C79.9122 120.757 80.0652 120.343 80.3712 120.037C80.6952 119.713 81.0822 119.551 81.5322 119.551C81.9642 119.551 82.3332 119.713 82.6392 120.037C82.9632 120.343 83.1252 120.757 83.1252 121.279C83.1252 121.765 82.9632 122.17 82.6392 122.494C82.3332 122.8 81.9642 122.953 81.5322 122.953Z" fill="#CCCCCC" fill-opacity="0.3"/>
<path d="M81.5322 98.5886C81.0822 98.5886 80.6952 98.4356 80.3712 98.1296C80.0652 97.8056 79.9122 97.4006 79.9122 96.9146C79.9122 96.3926 80.0652 95.9786 80.3712 95.6726C80.6952 95.3486 81.0822 95.1866 81.5322 95.1866C81.9642 95.1866 82.3332 95.3486 82.6392 95.6726C82.9632 95.9786 83.1252 96.3926 83.1252 96.9146C83.1252 97.4006 82.9632 97.8056 82.6392 98.1296C82.3332 98.4356 81.9642 98.5886 81.5322 98.5886Z" fill="#CCCCCC" fill-opacity="0.3"/>
<path d="M81.5322 147.317C81.0822 147.317 80.6952 147.164 80.3712 146.858C80.0652 146.534 79.9122 146.129 79.9122 145.643C79.9122 145.121 80.0652 144.707 80.3712 144.401C80.6952 144.077 81.0822 143.915 81.5322 143.915C81.9642 143.915 82.3332 144.077 82.6392 144.401C82.9632 144.707 83.1252 145.121 83.1252 145.643C83.1252 146.129 82.9632 146.534 82.6392 146.858C82.3332 147.164 81.9642 147.317 81.5322 147.317Z" fill="#CCCCCC" fill-opacity="0.3"/>
<path d="M81.5322 183.864C81.0822 183.864 80.6952 183.711 80.3712 183.405C80.0652 183.081 79.9122 182.676 79.9122 182.19C79.9122 181.668 80.0652 181.254 80.3712 180.948C80.6952 180.624 81.0822 180.462 81.5322 180.462C81.9642 180.462 82.3332 180.624 82.6392 180.948C82.9632 181.254 83.1252 181.668 83.1252 182.19C83.1252 182.676 82.9632 183.081 82.6392 183.405C82.3332 183.711 81.9642 183.864 81.5322 183.864Z" fill="#CCCCCC" fill-opacity="0.3"/>
<path d="M81.5322 86.407C81.0822 86.407 80.6952 86.254 80.3712 85.948C80.0652 85.624 79.9122 85.219 79.9122 84.733C79.9122 84.211 80.0652 83.797 80.3712 83.491C80.6952 83.167 81.0822 83.005 81.5322 83.005C81.9642 83.005 82.3332 83.167 82.6392 83.491C82.9632 83.797 83.1252 84.211 83.1252 84.733C83.1252 85.219 82.9632 85.624 82.6392 85.948C82.3332 86.254 81.9642 86.407 81.5322 86.407Z" fill="#CCCCCC" fill-opacity="0.3"/>
<path d="M81.5322 135.135C81.0822 135.135 80.6952 134.982 80.3712 134.676C80.0652 134.352 79.9122 133.947 79.9122 133.461C79.9122 132.939 80.0652 132.525 80.3712 132.219C80.6952 131.895 81.0822 131.733 81.5322 131.733C81.9642 131.733 82.3332 131.895 82.6392 132.219C82.9632 132.525 83.1252 132.939 83.1252 133.461C83.1252 133.947 82.9632 134.352 82.6392 134.676C82.3332 134.982 81.9642 135.135 81.5322 135.135Z" fill="#CCCCCC" fill-opacity="0.3"/>
<path d="M81.5322 171.681C81.0822 171.681 80.6952 171.528 80.3712 171.222C80.0652 170.898 79.9122 170.493 79.9122 170.007C79.9122 169.485 80.0652 169.071 80.3712 168.765C80.6952 168.441 81.0822 168.279 81.5322 168.279C81.9642 168.279 82.3332 168.441 82.6392 168.765C82.9632 169.071 83.1252 169.485 83.1252 170.007C83.1252 170.493 82.9632 170.898 82.6392 171.222C82.3332 171.528 81.9642 171.681 81.5322 171.681Z" fill="#CCCCCC" fill-opacity="0.3"/>
<path d="M81.5322 110.771C81.0822 110.771 80.6952 110.618 80.3712 110.312C80.0652 109.988 79.9122 109.583 79.9122 109.097C79.9122 108.575 80.0652 108.161 80.3712 107.855C80.6952 107.531 81.0822 107.369 81.5322 107.369C81.9642 107.369 82.3332 107.531 82.6392 107.855C82.9632 108.161 83.1252 108.575 83.1252 109.097C83.1252 109.583 82.9632 109.988 82.6392 110.312C82.3332 110.618 81.9642 110.771 81.5322 110.771Z" fill="#CCCCCC" fill-opacity="0.3"/>
<path d="M81.5322 159.5C81.0822 159.5 80.6952 159.347 80.3712 159.041C80.0652 158.717 79.9122 158.312 79.9122 157.826C79.9122 157.304 80.0652 156.89 80.3712 156.584C80.6952 156.26 81.0822 156.098 81.5322 156.098C81.9642 156.098 82.3332 156.26 82.6392 156.584C82.9632 156.89 83.1252 157.304 83.1252 157.826C83.1252 158.312 82.9632 158.717 82.6392 159.041C82.3332 159.347 81.9642 159.5 81.5322 159.5Z" fill="#CCCCCC" fill-opacity="0.3"/>
<path d="M81.5322 196.046C81.0822 196.046 80.6952 195.893 80.3712 195.587C80.0652 195.263 79.9122 194.858 79.9122 194.372C79.9122 193.85 80.0652 193.436 80.3712 193.13C80.6952 192.806 81.0822 192.644 81.5322 192.644C81.9642 192.644 82.3332 192.806 82.6392 193.13C82.9632 193.436 83.1252 193.85 83.1252 194.372C83.1252 194.858 82.9632 195.263 82.6392 195.587C82.3332 195.893 81.9642 196.046 81.5322 196.046Z" fill="#CCCCCC" fill-opacity="0.3"/>
<path d="M97.1641 74.2244C96.7141 74.2244 96.3271 74.0714 96.0031 73.7654C95.6971 73.4414 95.5441 73.0364 95.5441 72.5504C95.5441 72.0284 95.6971 71.6144 96.0031 71.3084C96.3271 70.9844 96.7141 70.8224 97.1641 70.8224C97.5961 70.8224 97.9651 70.9844 98.2711 71.3084C98.5951 71.6144 98.7571 72.0284 98.7571 72.5504C98.7571 73.0364 98.5951 73.4414 98.2711 73.7654C97.9651 74.0714 97.5961 74.2244 97.1641 74.2244Z" fill="#CCCCCC" fill-opacity="0.3"/>
<path d="M97.1641 122.953C96.7141 122.953 96.3271 122.8 96.0031 122.494C95.6971 122.17 95.5441 121.765 95.5441 121.279C95.5441 120.757 95.6971 120.343 96.0031 120.037C96.3271 119.713 96.7141 119.551 97.1641 119.551C97.5961 119.551 97.9651 119.713 98.2711 120.037C98.5951 120.343 98.7571 120.757 98.7571 121.279C98.7571 121.765 98.5951 122.17 98.2711 122.494C97.9651 122.8 97.5961 122.953 97.1641 122.953Z" fill="#CCCCCC" fill-opacity="0.3"/>
<path d="M97.1641 98.5896C96.7141 98.5896 96.3271 98.4366 96.0031 98.1306C95.6971 97.8066 95.5441 97.4016 95.5441 96.9156C95.5441 96.3936 95.6971 95.9796 96.0031 95.6736C96.3271 95.3496 96.7141 95.1876 97.1641 95.1876C97.5961 95.1876 97.9651 95.3496 98.2711 95.6736C98.5951 95.9796 98.7571 96.3936 98.7571 96.9156C98.7571 97.4016 98.5951 97.8066 98.2711 98.1306C97.9651 98.4366 97.5961 98.5896 97.1641 98.5896Z" fill="#CCCCCC" fill-opacity="0.3"/>
<path d="M97.1641 147.317C96.7141 147.317 96.3271 147.164 96.0031 146.858C95.6971 146.534 95.5441 146.129 95.5441 145.643C95.5441 145.121 95.6971 144.707 96.0031 144.401C96.3271 144.077 96.7141 143.915 97.1641 143.915C97.5961 143.915 97.9651 144.077 98.2711 144.401C98.5951 144.707 98.7571 145.121 98.7571 145.643C98.7571 146.129 98.5951 146.534 98.2711 146.858C97.9651 147.164 97.5961 147.317 97.1641 147.317Z" fill="#CCCCCC" fill-opacity="0.3"/>
<path d="M97.1641 183.863C96.7141 183.863 96.3271 183.71 96.0031 183.404C95.6971 183.08 95.5441 182.675 95.5441 182.189C95.5441 181.667 95.6971 181.253 96.0031 180.947C96.3271 180.623 96.7141 180.461 97.1641 180.461C97.5961 180.461 97.9651 180.623 98.2711 180.947C98.5951 181.253 98.7571 181.667 98.7571 182.189C98.7571 182.675 98.5951 183.08 98.2711 183.404C97.9651 183.71 97.5961 183.863 97.1641 183.863Z" fill="#CCCCCC" fill-opacity="0.3"/>
<path d="M97.1641 86.407C96.7141 86.407 96.3271 86.254 96.0031 85.948C95.6971 85.624 95.5441 85.219 95.5441 84.733C95.5441 84.211 95.6971 83.797 96.0031 83.491C96.3271 83.167 96.7141 83.005 97.1641 83.005C97.5961 83.005 97.9651 83.167 98.2711 83.491C98.5951 83.797 98.7571 84.211 98.7571 84.733C98.7571 85.219 98.5951 85.624 98.2711 85.948C97.9651 86.254 97.5961 86.407 97.1641 86.407Z" fill="#CCCCCC" fill-opacity="0.3"/>
<path d="M97.1641 135.135C96.7141 135.135 96.3271 134.982 96.0031 134.676C95.6971 134.352 95.5441 133.947 95.5441 133.461C95.5441 132.939 95.6971 132.525 96.0031 132.219C96.3271 131.895 96.7141 131.733 97.1641 131.733C97.5961 131.733 97.9651 131.895 98.2711 132.219C98.5951 132.525 98.7571 132.939 98.7571 133.461C98.7571 133.947 98.5951 134.352 98.2711 134.676C97.9651 134.982 97.5961 135.135 97.1641 135.135Z" fill="#CCCCCC" fill-opacity="0.3"/>
<path d="M97.1641 171.681C96.7141 171.681 96.3271 171.528 96.0031 171.222C95.6971 170.898 95.5441 170.493 95.5441 170.007C95.5441 169.485 95.6971 169.071 96.0031 168.765C96.3271 168.441 96.7141 168.279 97.1641 168.279C97.5961 168.279 97.9651 168.441 98.2711 168.765C98.5951 169.071 98.7571 169.485 98.7571 170.007C98.7571 170.493 98.5951 170.898 98.2711 171.222C97.9651 171.528 97.5961 171.681 97.1641 171.681Z" fill="#CCCCCC" fill-opacity="0.3"/>
<path d="M97.1641 110.771C96.7141 110.771 96.3271 110.618 96.0031 110.312C95.6971 109.988 95.5441 109.583 95.5441 109.097C95.5441 108.575 95.6971 108.161 96.0031 107.855C96.3271 107.531 96.7141 107.369 97.1641 107.369C97.5961 107.369 97.9651 107.531 98.2711 107.855C98.5951 108.161 98.7571 108.575 98.7571 109.097C98.7571 109.583 98.5951 109.988 98.2711 110.312C97.9651 110.618 97.5961 110.771 97.1641 110.771Z" fill="#CCCCCC" fill-opacity="0.3"/>
<path d="M97.1641 159.5C96.7141 159.5 96.3271 159.347 96.0031 159.041C95.6971 158.717 95.5441 158.312 95.5441 157.826C95.5441 157.304 95.6971 156.89 96.0031 156.584C96.3271 156.26 96.7141 156.098 97.1641 156.098C97.5961 156.098 97.9651 156.26 98.2711 156.584C98.5951 156.89 98.7571 157.304 98.7571 157.826C98.7571 158.312 98.5951 158.717 98.2711 159.041C97.9651 159.347 97.5961 159.5 97.1641 159.5Z" fill="#CCCCCC" fill-opacity="0.3"/>
<path d="M97.1641 196.046C96.7141 196.046 96.3271 195.893 96.0031 195.587C95.6971 195.263 95.5441 194.858 95.5441 194.372C95.5441 193.85 95.6971 193.436 96.0031 193.13C96.3271 192.806 96.7141 192.644 97.1641 192.644C97.5961 192.644 97.9651 192.806 98.2711 193.13C98.5951 193.436 98.7571 193.85 98.7571 194.372C98.7571 194.858 98.5951 195.263 98.2711 195.587C97.9651 195.893 97.5961 196.046 97.1641 196.046Z" fill="#CCCCCC" fill-opacity="0.3"/>
<path d="M112.795 27.324C112.345 27.324 111.958 27.171 111.634 26.865C111.328 26.541 111.175 26.136 111.175 25.65C111.175 25.128 111.328 24.714 111.634 24.408C111.958 24.084 112.345 23.922 112.795 23.922C113.227 23.922 113.596 24.084 113.902 24.408C114.226 24.714 114.388 25.128 114.388 25.65C114.388 26.136 114.226 26.541 113.902 26.865C113.596 27.171 113.227 27.324 112.795 27.324Z" fill="#CCCCCC" fill-opacity="0.3"/>
<path d="M112.795 76.0525C112.345 76.0525 111.958 75.8995 111.634 75.5935C111.328 75.2695 111.175 74.8645 111.175 74.3785C111.175 73.8565 111.328 73.4425 111.634 73.1365C111.958 72.8125 112.345 72.6505 112.795 72.6505C113.227 72.6505 113.596 72.8125 113.902 73.1365C114.226 73.4425 114.388 73.8565 114.388 74.3785C114.388 74.8645 114.226 75.2695 113.902 75.5935C113.596 75.8995 113.227 76.0525 112.795 76.0525Z" fill="#CCCCCC" fill-opacity="0.3"/>
<path d="M112.795 51.6883C112.345 51.6883 111.958 51.5353 111.634 51.2293C111.328 50.9053 111.175 50.5003 111.175 50.0143C111.175 49.4923 111.328 49.0783 111.634 48.7723C111.958 48.4483 112.345 48.2863 112.795 48.2863C113.227 48.2863 113.596 48.4483 113.902 48.7723C114.226 49.0783 114.388 49.4923 114.388 50.0143C114.388 50.5003 114.226 50.9053 113.902 51.2293C113.596 51.5353 113.227 51.6883 112.795 51.6883Z" fill="#CCCCCC" fill-opacity="0.3"/>
<path d="M112.795 100.416C112.345 100.416 111.958 100.263 111.634 99.9568C111.328 99.6328 111.175 99.2278 111.175 98.7418C111.175 98.2198 111.328 97.8058 111.634 97.4998C111.958 97.1758 112.345 97.0138 112.795 97.0138C113.227 97.0138 113.596 97.1758 113.902 97.4998C114.226 97.8058 114.388 98.2198 114.388 98.7418C114.388 99.2278 114.226 99.6328 113.902 99.9568C113.596 100.263 113.227 100.416 112.795 100.416Z" fill="#CCCCCC" fill-opacity="0.3"/>
<path d="M112.795 136.963C112.345 136.963 111.958 136.81 111.634 136.504C111.328 136.18 111.175 135.775 111.175 135.289C111.175 134.767 111.328 134.353 111.634 134.047C111.958 133.723 112.345 133.561 112.795 133.561C113.227 133.561 113.596 133.723 113.902 134.047C114.226 134.353 114.388 134.767 114.388 135.289C114.388 135.775 114.226 136.18 113.902 136.504C113.596 136.81 113.227 136.963 112.795 136.963Z" fill="#CCCCCC" fill-opacity="0.3"/>
<path d="M112.795 39.5056C112.345 39.5056 111.958 39.3526 111.634 39.0466C111.328 38.7226 111.175 38.3176 111.175 37.8316C111.175 37.3096 111.328 36.8956 111.634 36.5896C111.958 36.2656 112.345 36.1036 112.795 36.1036C113.227 36.1036 113.596 36.2656 113.902 36.5896C114.226 36.8956 114.388 37.3096 114.388 37.8316C114.388 38.3176 114.226 38.7226 113.902 39.0466C113.596 39.3526 113.227 39.5056 112.795 39.5056Z" fill="#CCCCCC" fill-opacity="0.3"/>
<path d="M112.795 88.2342C112.345 88.2342 111.958 88.0812 111.634 87.7752C111.328 87.4512 111.175 87.0462 111.175 86.5602C111.175 86.0382 111.328 85.6242 111.634 85.3182C111.958 84.9942 112.345 84.8322 112.795 84.8322C113.227 84.8322 113.596 84.9942 113.902 85.3182C114.226 85.6242 114.388 86.0382 114.388 86.5602C114.388 87.0462 114.226 87.4512 113.902 87.7752C113.596 88.0812 113.227 88.2342 112.795 88.2342Z" fill="#CCCCCC" fill-opacity="0.3"/>
<path d="M112.795 124.781C112.345 124.781 111.958 124.628 111.634 124.322C111.328 123.998 111.175 123.593 111.175 123.107C111.175 122.585 111.328 122.171 111.634 121.865C111.958 121.541 112.345 121.379 112.795 121.379C113.227 121.379 113.596 121.541 113.902 121.865C114.226 122.171 114.388 122.585 114.388 123.107C114.388 123.593 114.226 123.998 113.902 124.322C113.596 124.628 113.227 124.781 112.795 124.781Z" fill="#CCCCCC" fill-opacity="0.3"/>
<path d="M112.795 63.8699C112.345 63.8699 111.958 63.7169 111.634 63.4109C111.328 63.0869 111.175 62.6819 111.175 62.1959C111.175 61.6739 111.328 61.2599 111.634 60.9539C111.958 60.6299 112.345 60.4679 112.795 60.4679C113.227 60.4679 113.596 60.6299 113.902 60.9539C114.226 61.2599 114.388 61.6739 114.388 62.1959C114.388 62.6819 114.226 63.0869 113.902 63.4109C113.596 63.7169 113.227 63.8699 112.795 63.8699Z" fill="#CCCCCC" fill-opacity="0.3"/>
<path d="M112.795 112.598C112.345 112.598 111.958 112.445 111.634 112.139C111.328 111.815 111.175 111.41 111.175 110.924C111.175 110.402 111.328 109.988 111.634 109.682C111.958 109.358 112.345 109.196 112.795 109.196C113.227 109.196 113.596 109.358 113.902 109.682C114.226 109.988 114.388 110.402 114.388 110.924C114.388 111.41 114.226 111.815 113.902 112.139C113.596 112.445 113.227 112.598 112.795 112.598Z" fill="#CCCCCC" fill-opacity="0.3"/>
<path d="M112.795 149.144C112.345 149.144 111.958 148.991 111.634 148.685C111.328 148.361 111.175 147.956 111.175 147.47C111.175 146.948 111.328 146.534 111.634 146.228C111.958 145.904 112.345 145.742 112.795 145.742C113.227 145.742 113.596 145.904 113.902 146.228C114.226 146.534 114.388 146.948 114.388 147.47C114.388 147.956 114.226 148.361 113.902 148.685C113.596 148.991 113.227 149.144 112.795 149.144Z" fill="#CCCCCC" fill-opacity="0.3"/>
<path d="M128.428 27.324C127.978 27.324 127.591 27.171 127.267 26.865C126.961 26.541 126.808 26.136 126.808 25.65C126.808 25.128 126.961 24.714 127.267 24.408C127.591 24.084 127.978 23.922 128.428 23.922C128.86 23.922 129.229 24.084 129.535 24.408C129.859 24.714 130.021 25.128 130.021 25.65C130.021 26.136 129.859 26.541 129.535 26.865C129.229 27.171 128.86 27.324 128.428 27.324Z" fill="#CCCCCC" fill-opacity="0.3"/>
<path d="M128.428 76.0525C127.978 76.0525 127.591 75.8995 127.267 75.5935C126.961 75.2695 126.808 74.8645 126.808 74.3785C126.808 73.8565 126.961 73.4425 127.267 73.1365C127.591 72.8125 127.978 72.6505 128.428 72.6505C128.86 72.6505 129.229 72.8125 129.535 73.1365C129.859 73.4425 130.021 73.8565 130.021 74.3785C130.021 74.8645 129.859 75.2695 129.535 75.5935C129.229 75.8995 128.86 76.0525 128.428 76.0525Z" fill="#CCCCCC" fill-opacity="0.3"/>
<path d="M128.428 51.6883C127.978 51.6883 127.591 51.5353 127.267 51.2293C126.961 50.9053 126.808 50.5003 126.808 50.0143C126.808 49.4923 126.961 49.0783 127.267 48.7723C127.591 48.4483 127.978 48.2863 128.428 48.2863C128.86 48.2863 129.229 48.4483 129.535 48.7723C129.859 49.0783 130.021 49.4923 130.021 50.0143C130.021 50.5003 129.859 50.9053 129.535 51.2293C129.229 51.5353 128.86 51.6883 128.428 51.6883Z" fill="#CCCCCC" fill-opacity="0.3"/>
<path d="M128.428 100.416C127.978 100.416 127.591 100.263 127.267 99.9568C126.961 99.6328 126.808 99.2278 126.808 98.7418C126.808 98.2198 126.961 97.8058 127.267 97.4998C127.591 97.1758 127.978 97.0138 128.428 97.0138C128.86 97.0138 129.229 97.1758 129.535 97.4998C129.859 97.8058 130.021 98.2198 130.021 98.7418C130.021 99.2278 129.859 99.6328 129.535 99.9568C129.229 100.263 128.86 100.416 128.428 100.416Z" fill="#CCCCCC" fill-opacity="0.3"/>
<path d="M128.428 136.963C127.978 136.963 127.591 136.81 127.267 136.504C126.961 136.18 126.808 135.775 126.808 135.289C126.808 134.767 126.961 134.353 127.267 134.047C127.591 133.723 127.978 133.561 128.428 133.561C128.86 133.561 129.229 133.723 129.535 134.047C129.859 134.353 130.021 134.767 130.021 135.289C130.021 135.775 129.859 136.18 129.535 136.504C129.229 136.81 128.86 136.963 128.428 136.963Z" fill="#CCCCCC" fill-opacity="0.3"/>
<path d="M128.428 39.5056C127.978 39.5056 127.591 39.3526 127.267 39.0466C126.961 38.7226 126.808 38.3176 126.808 37.8316C126.808 37.3096 126.961 36.8956 127.267 36.5896C127.591 36.2656 127.978 36.1036 128.428 36.1036C128.86 36.1036 129.229 36.2656 129.535 36.5896C129.859 36.8956 130.021 37.3096 130.021 37.8316C130.021 38.3176 129.859 38.7226 129.535 39.0466C129.229 39.3526 128.86 39.5056 128.428 39.5056Z" fill="#CCCCCC" fill-opacity="0.3"/>
<path d="M128.428 88.2342C127.978 88.2342 127.591 88.0812 127.267 87.7752C126.961 87.4512 126.808 87.0462 126.808 86.5602C126.808 86.0382 126.961 85.6242 127.267 85.3182C127.591 84.9942 127.978 84.8322 128.428 84.8322C128.86 84.8322 129.229 84.9942 129.535 85.3182C129.859 85.6242 130.021 86.0382 130.021 86.5602C130.021 87.0462 129.859 87.4512 129.535 87.7752C129.229 88.0812 128.86 88.2342 128.428 88.2342Z" fill="#CCCCCC" fill-opacity="0.3"/>
<path d="M128.428 124.781C127.978 124.781 127.591 124.628 127.267 124.322C126.961 123.998 126.808 123.593 126.808 123.107C126.808 122.585 126.961 122.171 127.267 121.865C127.591 121.541 127.978 121.379 128.428 121.379C128.86 121.379 129.229 121.541 129.535 121.865C129.859 122.171 130.021 122.585 130.021 123.107C130.021 123.593 129.859 123.998 129.535 124.322C129.229 124.628 128.86 124.781 128.428 124.781Z" fill="#CCCCCC" fill-opacity="0.3"/>
<path d="M128.428 63.8699C127.978 63.8699 127.591 63.7169 127.267 63.4109C126.961 63.0869 126.808 62.6819 126.808 62.1959C126.808 61.6739 126.961 61.2599 127.267 60.9539C127.591 60.6299 127.978 60.4679 128.428 60.4679C128.86 60.4679 129.229 60.6299 129.535 60.9539C129.859 61.2599 130.021 61.6739 130.021 62.1959C130.021 62.6819 129.859 63.0869 129.535 63.4109C129.229 63.7169 128.86 63.8699 128.428 63.8699Z" fill="#CCCCCC" fill-opacity="0.3"/>
<path d="M128.428 112.598C127.978 112.598 127.591 112.445 127.267 112.139C126.961 111.815 126.808 111.41 126.808 110.924C126.808 110.402 126.961 109.988 127.267 109.682C127.591 109.358 127.978 109.196 128.428 109.196C128.86 109.196 129.229 109.358 129.535 109.682C129.859 109.988 130.021 110.402 130.021 110.924C130.021 111.41 129.859 111.815 129.535 112.139C129.229 112.445 128.86 112.598 128.428 112.598Z" fill="#CCCCCC" fill-opacity="0.3"/>
<path d="M128.428 149.144C127.978 149.144 127.591 148.991 127.267 148.685C126.961 148.361 126.808 147.956 126.808 147.47C126.808 146.948 126.961 146.534 127.267 146.228C127.591 145.904 127.978 145.742 128.428 145.742C128.86 145.742 129.229 145.904 129.535 146.228C129.859 146.534 130.021 146.948 130.021 147.47C130.021 147.956 129.859 148.361 129.535 148.685C129.229 148.991 128.86 149.144 128.428 149.144Z" fill="#CCCCCC" fill-opacity="0.3"/>
</svg>
